<?xml version="1.0" encoding="utf-8"?>
<!-- Generator: Adobe Illustrator 17.0.0, SVG Export Plug-In . SVG Version: 6.00 Build 0)  -->
<!DOCTYPE svg PUBLIC "-//W3C//DTD SVG 1.1//EN" "http://www.w3.org/Graphics/SVG/1.1/DTD/svg11.dtd">
<svg version="1.1" xmlns="http://www.w3.org/2000/svg" xmlns:xlink="http://www.w3.org/1999/xlink" x="0px" y="0px" width="165px"
	 height="40px" viewBox="0 0 165 40" enable-background="new 0 0 165 40" xml:space="preserve">
<g id="US_UK_Download_on_the">
	<g>
		<path display="none" fill="#A6A6A6" d="M156.763,39.087H8.237c-2.489,0-4.516-2.021-4.516-4.508V5.416
			c0-2.489,2.026-4.514,4.516-4.514h148.525c2.487,0,4.516,2.024,4.516,4.514v29.163C161.279,37.066,159.25,39.087,156.763,39.087
			L156.763,39.087z"/>
		<g>
			<path fill="#FFFFFF" d="M82.497,20.568H82.46c-0.119,0.512-0.309,1.265-0.57,2.263l-0.998,3.139h3.227l-1.016-3.139
				C82.996,22.51,82.794,21.757,82.497,20.568z"/>
			<path fill="#FFFFFF" d="M75.204,9.866c-0.402,0-0.708,0.18-0.918,0.539c-0.18,0.297-0.268,0.659-0.268,1.087
				c0,0.415,0.09,0.772,0.268,1.069c0.217,0.359,0.519,0.539,0.908,0.539c0.382,0,0.682-0.182,0.898-0.548
				c0.185-0.304,0.278-0.663,0.278-1.078s-0.09-0.772-0.268-1.069C75.892,10.046,75.593,9.866,75.204,9.866z"/>
			<path fill="#FFFFFF" d="M86.51,10.159c-0.186-0.163-0.41-0.245-0.669-0.245c-0.372,0-0.665,0.148-0.879,0.445
				c-0.214,0.297-0.321,0.676-0.321,1.139c0,0.445,0.102,0.806,0.307,1.084c0.217,0.296,0.508,0.444,0.874,0.444
				c0.328,0,0.592-0.123,0.791-0.37c0.193-0.229,0.288-0.504,0.288-0.825V11.08c0-0.13-0.01-0.235-0.028-0.315
				C86.817,10.524,86.695,10.322,86.51,10.159z"/>
			<path fill="#FFFFFF" d="M60.109,28.411c0,0.452,0.123,0.791,0.372,1.016c0.248,0.225,0.561,0.338,0.939,0.338
				c0.426,0,0.818-0.133,1.179-0.401c0.36-0.266,0.582-0.608,0.665-1.024c0.023-0.095,0.035-0.208,0.035-0.339v-1.337
				C61.172,26.629,60.109,27.21,60.109,28.411z"/>
			<path fill="#FFFFFF" d="M94.283,13.1c0.382,0,0.682-0.182,0.898-0.548c0.186-0.304,0.278-0.663,0.278-1.078
				s-0.09-0.772-0.268-1.069c-0.21-0.359-0.509-0.539-0.898-0.539c-0.402,0-0.708,0.18-0.918,0.539
				c-0.18,0.297-0.268,0.659-0.268,1.087c0,0.415,0.09,0.772,0.268,1.069C93.592,12.92,93.894,13.1,94.283,13.1z"/>
			<path fill="#FFFFFF" d="M79.556,12.395c0,0.235,0.064,0.411,0.193,0.528c0.129,0.117,0.292,0.176,0.488,0.176
				c0.221,0,0.425-0.07,0.613-0.208c0.188-0.138,0.303-0.316,0.346-0.533c0.011-0.049,0.017-0.108,0.017-0.176v-0.694
				C80.108,11.469,79.556,11.772,79.556,12.395z"/>
			<path fill="#FFFFFF" d="M48.79,12.349c0.417-0.426,0.627-1.046,0.627-1.862c0-0.729-0.193-1.287-0.579-1.677
				c-0.386-0.389-0.949-0.583-1.691-0.583c-0.315,0-0.583,0.021-0.806,0.065v4.668c0.123,0.019,0.349,0.028,0.676,0.028
				C47.783,12.988,48.374,12.775,48.79,12.349z"/>
			<path fill="#FFFFFF" d="M103.332,23.669c-0.476,0-0.906,0.157-1.293,0.472s-0.638,0.728-0.757,1.238
				c-0.059,0.239-0.09,0.434-0.09,0.589v1.444c0,0.63,0.194,1.162,0.58,1.595c0.386,0.434,0.888,0.651,1.507,0.651
				c0.724,0,1.289-0.28,1.693-0.837c0.404-0.56,0.608-1.296,0.608-2.21c0-0.845-0.19-1.538-0.571-2.087
				C104.593,23.955,104.034,23.669,103.332,23.669z"/>
			<path fill="#FFFFFF" d="M53.853,13.1c0.382,0,0.682-0.182,0.898-0.548c0.186-0.304,0.278-0.663,0.278-1.078
				s-0.09-0.772-0.268-1.069c-0.21-0.359-0.509-0.539-0.898-0.539c-0.402,0-0.708,0.18-0.918,0.539
				c-0.18,0.297-0.268,0.659-0.268,1.087c0,0.415,0.09,0.772,0.268,1.069C53.162,12.92,53.464,13.1,53.853,13.1z"/>
			<path fill="#FFFFFF" d="M93.368,23.669c-0.476,0-0.906,0.157-1.293,0.472c-0.387,0.315-0.64,0.728-0.757,1.238
				c-0.059,0.239-0.09,0.434-0.09,0.589v1.444c0,0.63,0.192,1.162,0.58,1.595c0.386,0.434,0.888,0.651,1.505,0.651
				c0.726,0,1.289-0.28,1.693-0.837c0.407-0.56,0.608-1.296,0.608-2.21c0-0.845-0.19-1.538-0.571-2.087
				C94.627,23.955,94.069,23.669,93.368,23.669z"/>
			<path fill="#FFFFFF" d="M145.737,23.456c-0.63,0-1.141,0.261-1.533,0.783c-0.321,0.418-0.511,0.916-0.571,1.497l4.012,0.001
				c0.011-0.571-0.114-1.063-0.375-1.479C146.938,23.722,146.427,23.456,145.737,23.456z"/>
			<path fill="#FFFFFF" d="M117.199,9.821c-0.328,0-0.593,0.136-0.797,0.408c-0.166,0.217-0.265,0.476-0.296,0.778
				c-0.001,0,2.083,0,2.083,0c0.007-0.297-0.059-0.553-0.194-0.769C117.821,9.96,117.557,9.821,117.199,9.821z"/>
			<path fill="#FFFFFF" d="M160.423,5.414c0-2.02-1.636-3.661-3.661-3.661H8.237c-2.024,0-3.666,1.641-3.666,3.661v29.165
				c0,2.02,1.643,3.657,3.666,3.657h148.526c2.024,0,3.661-1.636,3.661-3.657L160.423,5.414z M92.695,9.802
				c0.405-0.444,0.949-0.667,1.635-0.667c0.661,0,1.192,0.219,1.594,0.657c0.381,0.427,0.573,0.977,0.573,1.649
				c0,0.692-0.198,1.259-0.593,1.704c-0.414,0.457-0.963,0.686-1.649,0.686c-0.661,0-1.187-0.219-1.579-0.658
				c-0.392-0.438-0.587-0.991-0.587-1.658C92.089,10.818,92.29,10.246,92.695,9.802z M80.252,9.848
				c-0.444,0-0.836,0.112-1.174,0.333l-0.203-0.657c0.418-0.259,0.935-0.389,1.544-0.389c1.177,0,1.767,0.621,1.767,1.862v1.658
				c0,0.45,0.022,0.809,0.065,1.074h-0.899l-0.074-0.519H81.25c-0.308,0.413-0.747,0.621-1.315,0.621
				c-0.426,0-0.77-0.137-1.028-0.408c-0.235-0.246-0.351-0.553-0.351-0.917c0-0.55,0.229-0.969,0.69-1.259
				c0.459-0.29,1.107-0.433,1.94-0.426v-0.084C81.186,10.144,80.875,9.848,80.252,9.848z M70.516,7.162h1.001v6.567h-1.001V7.162z
				 M52.265,9.802c0.405-0.444,0.949-0.667,1.635-0.667c0.661,0,1.192,0.219,1.594,0.657c0.381,0.427,0.573,0.977,0.573,1.649
				c0,0.692-0.198,1.259-0.593,1.704c-0.414,0.457-0.963,0.686-1.649,0.686c-0.661,0-1.187-0.219-1.579-0.658
				c-0.392-0.438-0.587-0.991-0.587-1.658C51.659,10.818,51.86,10.246,52.265,9.802z M45.342,7.569
				c0.532-0.086,1.105-0.13,1.724-0.13c1.093,0,1.917,0.238,2.473,0.713c0.622,0.538,0.934,1.307,0.934,2.307
				c0,1.124-0.337,1.97-1.01,2.538c-0.624,0.524-1.51,0.787-2.657,0.787c-0.569,0-1.056-0.025-1.464-0.074V7.569z M27.33,8.674
				c0.888-1.021,2.431-1.803,3.665-1.856c0.161,1.441-0.421,2.86-1.273,3.905c-0.89,1.027-2.312,1.813-3.698,1.711
				C25.842,11.048,26.544,9.573,27.33,8.674z M34.444,28.154c-1.022,1.497-2.094,2.96-3.794,2.986
				c-1.652,0.037-2.208-0.951-4.102-0.951c-1.914,0-2.505,0.925-4.09,0.988c-1.619,0.059-2.857-1.595-3.916-3.08
				c-2.116-3.026-3.765-8.533-1.555-12.279c1.072-1.837,3.025-3.019,5.111-3.051c1.62-0.034,3.126,1.071,4.122,1.071
				c0.977,0,2.837-1.322,4.756-1.125c0.802,0.022,3.086,0.31,4.559,2.415c-0.119,0.069-2.721,1.567-2.692,4.645
				c0.033,3.69,3.295,4.908,3.336,4.921C36.159,24.781,35.668,26.454,34.444,28.154z M54.992,30.977l-0.25-5.027
				c-0.119-2.27-0.172-3.958-0.16-5.062h-0.053c-0.38,1.414-0.85,2.929-1.408,4.545l-1.872,5.436h-1.462l-1.711-5.347
				c-0.511-1.617-0.927-3.162-1.248-4.635h-0.036c-0.059,1.806-0.131,3.524-0.214,5.152l-0.286,4.937h-1.8l0.802-12.014h2.478
				l1.729,5.205c0.428,1.283,0.802,2.663,1.123,4.137h0.053c0.38-1.533,0.784-2.911,1.212-4.137l1.801-5.205h2.478l0.696,12.015
				H54.992z M58.076,9.228l0.509,2.14c0.123,0.506,0.224,0.988,0.306,1.445h0.018c0.074-0.376,0.198-0.856,0.371-1.435l0.639-2.148
				h0.815l0.612,2.103c0.148,0.513,0.268,1.006,0.361,1.482h0.028c0.068-0.463,0.17-0.957,0.306-1.482l0.546-2.103l0.982-0.002
				l-1.408,4.501h-0.917l-0.583-1.955c-0.148-0.488-0.268-0.973-0.362-1.454h-0.018c-0.087,0.495-0.207,0.979-0.362,1.454
				l-0.62,1.955h-0.927l-1.324-4.501H58.076z M63.567,30.977l-0.142-0.998h-0.053c-0.595,0.796-1.438,1.194-2.531,1.194
				c-0.82,0-1.479-0.261-1.979-0.783c-0.452-0.476-0.677-1.063-0.677-1.765c0-1.057,0.442-1.867,1.328-2.424
				c0.885-0.56,2.129-0.832,3.735-0.82v-0.16c0-1.141-0.599-1.71-1.796-1.71c-0.855,0-1.607,0.213-2.259,0.642l-0.392-1.266
				c0.807-0.499,1.798-0.748,2.973-0.748c2.266,0,3.399,1.194,3.399,3.583v3.191c-0.002,0.865,0.04,1.553,0.123,2.064H63.567z
				 M65.848,11.059v2.67h-1.001v-3.214c0-0.395-0.012-0.824-0.036-1.288h0.879l0.047,0.704h0.028
				c0.116-0.219,0.29-0.399,0.519-0.543c0.271-0.168,0.575-0.253,0.907-0.253c0.42,0,0.77,0.136,1.048,0.408
				c0.346,0.333,0.519,0.831,0.519,1.492l-0.002,2.694h-1v-2.578c0-0.794-0.302-1.192-0.907-1.192c-0.297,0-0.537,0.109-0.723,0.328
				C65.942,10.506,65.848,10.763,65.848,11.059z M69.388,28.82c0.517,0.534,1.174,0.802,1.969,0.802
				c0.594,0,1.176-0.119,1.747-0.356l0.267,1.444c-0.63,0.297-1.426,0.446-2.388,0.446c-1.319,0-2.37-0.401-3.155-1.203
				c-0.785-0.802-1.176-1.874-1.176-3.217c0-1.343,0.422-2.445,1.266-3.307c0.843-0.861,1.979-1.293,3.404-1.293
				c0.807,0.001,1.502,0.137,2.085,0.409l-0.374,1.462c-0.487-0.237-1.046-0.356-1.676-0.356c-0.844,0-1.512,0.282-2.005,0.847
				c-0.493,0.565-0.739,1.281-0.739,2.148C68.613,27.56,68.872,28.286,69.388,28.82z M76.815,13.145
				c-0.414,0.457-0.963,0.686-1.649,0.686c-0.661,0-1.187-0.219-1.579-0.658C73.195,12.735,73,12.182,73,11.515
				c0-0.697,0.201-1.269,0.606-1.713c0.405-0.444,0.949-0.667,1.635-0.667c0.661,0,1.192,0.219,1.594,0.657
				c0.381,0.427,0.573,0.977,0.573,1.649C77.408,12.133,77.21,12.7,76.815,13.145z M85.58,30.977l-1.124-3.528h-3.903l-1.069,3.528
				h-1.998l3.868-12.014h2.388l3.888,12.014H85.58z M87.049,13.729l-0.047-0.723h-0.028c-0.284,0.55-0.766,0.825-1.445,0.825
				c-0.543,0-0.994-0.213-1.352-0.639c-0.358-0.426-0.537-0.979-0.537-1.658c0-0.729,0.194-1.319,0.582-1.769
				c0.377-0.42,0.84-0.63,1.389-0.63c0.605,0,1.028,0.203,1.269,0.611h0.019V7.162H87.9v5.354c0.002,0.439,0.014,0.843,0.038,1.213
				H87.049z M96.381,30.034c-0.712,0.761-1.598,1.139-2.656,1.139c-1.141,0-1.96-0.409-2.46-1.229H91.23v4.563h-1.925v-9.342
				c0-0.927-0.024-1.876-0.073-2.851h1.693l0.108,1.373h0.035c0.642-1.033,1.615-1.55,2.923-1.55c1.022,0,1.874,0.403,2.559,1.213
				c0.684,0.807,1.025,1.87,1.025,3.189C97.575,28.014,97.178,29.178,96.381,30.034z M98.969,13.729h-1.001v-3.214
				c0-0.395-0.012-0.824-0.036-1.288h0.879l0.047,0.704h0.028c0.117-0.219,0.29-0.399,0.519-0.543
				c0.271-0.168,0.575-0.253,0.907-0.253c0.42,0,0.77,0.136,1.048,0.408c0.346,0.333,0.519,0.831,0.519,1.492v2.694h-0.001h-1.001
				v-2.578c0-0.794-0.302-1.192-0.907-1.192c-0.297,0-0.537,0.109-0.723,0.328c-0.184,0.219-0.278,0.476-0.278,0.772V13.729z
				 M106.346,30.034c-0.714,0.761-1.598,1.139-2.657,1.139c-1.139,0-1.96-0.409-2.458-1.229h-0.037v4.563h-1.925v-9.342
				c0-0.927-0.024-1.876-0.071-2.851h1.693l0.106,1.373h0.035c0.642-1.033,1.617-1.55,2.924-1.55c1.022,0,1.874,0.403,2.557,1.213
				c0.685,0.807,1.027,1.87,1.027,3.189C107.54,28.014,107.141,29.178,106.346,30.034z M108.612,9.977h-1.102v2.187
				c0,0.556,0.195,0.834,0.583,0.834c0.18,0,0.328-0.015,0.445-0.047l0.027,0.759c-0.198,0.074-0.457,0.112-0.777,0.112
				c-0.395,0-0.704-0.12-0.926-0.361s-0.334-0.646-0.334-1.214v-2.27h-0.657v-0.75h0.657V8.403l0.982-0.296v1.12h1.102V9.977z
				 M111.047,11.021v2.707h-1.001V7.162h1.001v2.713h0.019c0.315-0.494,0.766-0.74,1.352-0.74c0.414,0,0.756,0.136,1.028,0.408
				c0.339,0.339,0.509,0.843,0.509,1.51v2.676h-1V11.17c0-0.807-0.302-1.211-0.907-1.211c-0.463,0-0.781,0.234-0.954,0.702
				C111.063,10.759,111.047,10.88,111.047,11.021z M117.613,30.104c-0.783,0.701-1.874,1.052-3.273,1.052
				c-1.293,0-2.329-0.25-3.113-0.75l0.446-1.604c0.843,0.511,1.771,0.767,2.781,0.767c0.726,0,1.291-0.162,1.695-0.491
				c0.404-0.328,0.606-0.765,0.606-1.313c0-0.487-0.166-0.899-0.499-1.231c-0.332-0.334-0.884-0.644-1.658-0.929
				c-2.102-0.785-3.154-1.934-3.154-3.446c0-0.988,0.368-1.797,1.104-2.427c0.736-0.631,1.718-0.946,2.941-0.946
				c1.094,0,2.003,0.19,2.728,0.571l-0.481,1.569c-0.679-0.369-1.446-0.553-2.299-0.553c-0.679,0-1.207,0.167-1.587,0.499
				c-0.321,0.296-0.481,0.66-0.481,1.087c0,0.476,0.184,0.867,0.552,1.176c0.321,0.286,0.902,0.595,1.747,0.927
				c1.033,0.416,1.794,0.902,2.281,1.462c0.488,0.557,0.731,1.254,0.731,2.085C118.68,28.631,118.324,29.462,117.613,30.104z
				 M119.107,11.719h-3.001c0.012,0.445,0.157,0.784,0.434,1.019c0.254,0.21,0.581,0.315,0.982,0.315
				c0.445,0,0.85-0.071,1.214-0.213l0.157,0.695c-0.426,0.185-0.929,0.278-1.51,0.278c-0.697,0-1.246-0.205-1.644-0.616
				c-0.398-0.411-0.597-0.962-0.597-1.653c0-0.679,0.184-1.244,0.556-1.695c0.389-0.481,0.913-0.722,1.574-0.722
				c0.648,0,1.139,0.241,1.472,0.722c0.266,0.382,0.4,0.855,0.4,1.416C119.144,11.445,119.131,11.595,119.107,11.719z
				 M125.045,23.757h-0.002v0.001h-2.123v4.207c0,1.069,0.375,1.604,1.125,1.604c0.343,0,0.628-0.03,0.855-0.09l0.054,1.462
				c-0.38,0.143-0.88,0.215-1.497,0.215c-0.761,0-1.354-0.231-1.783-0.696c-0.427-0.462-0.642-1.242-0.642-2.335v-4.368h-1.264
				v-1.444h1.264v-1.586l1.89-0.571v2.156h2.123V23.757z M133.475,29.855c-0.796,0.88-1.853,1.319-3.174,1.319
				c-1.272,0-2.285-0.421-3.038-1.264c-0.755-0.845-1.132-1.908-1.132-3.191c0-1.343,0.388-2.442,1.168-3.297
				c0.777-0.856,1.828-1.283,3.146-1.283c1.272,0,2.292,0.421,3.066,1.264c0.735,0.819,1.103,1.876,1.103,3.171
				C134.614,27.906,134.234,28.998,133.475,29.855z M140.871,24.007c-0.19-0.035-0.392-0.053-0.606-0.053
				c-0.677,0-1.201,0.256-1.569,0.765c-0.321,0.454-0.481,1.024-0.481,1.712v4.545h-1.925l0.017-5.935c0-1-0.024-1.908-0.071-2.728
				h1.675l0.073,1.658h0.053c0.203-0.571,0.524-1.027,0.963-1.373c0.429-0.307,0.892-0.462,1.391-0.462
				c0.18,0,0.339,0.011,0.481,0.035L140.871,24.007z M149.41,27.109h-5.776c0.024,0.856,0.304,1.509,0.839,1.962
				c0.487,0.403,1.115,0.606,1.89,0.606c0.855,0,1.634-0.138,2.335-0.411L149,30.603c-0.818,0.356-1.788,0.534-2.906,0.534
				c-1.343,0-2.397-0.393-3.163-1.184s-1.151-1.852-1.151-3.182c0-1.307,0.356-2.395,1.07-3.262
				c0.748-0.927,1.759-1.391,3.031-1.391c1.248,0,2.191,0.464,2.833,1.391c0.511,0.737,0.767,1.645,0.767,2.727
				C149.481,26.581,149.457,26.872,149.41,27.109z"/>
			<path fill="#FFFFFF" d="M130.372,23.545c-0.774,0-1.362,0.345-1.767,1.037c-0.345,0.571-0.517,1.268-0.517,2.09
				c0,0.798,0.172,1.485,0.517,2.055c0.416,0.692,1,1.037,1.747,1.037c0.736,0,1.313-0.35,1.729-1.054
				c0.359-0.582,0.537-1.275,0.537-2.073c0-0.798-0.174-1.485-0.517-2.055C131.696,23.89,131.12,23.545,130.372,23.545z"/>
		</g>
	</g>
</g>
<g id="Layer_2">
</g>
</svg>
